<?xml version="1.0" encoding="UTF-8"?> <svg xmlns="http://www.w3.org/2000/svg" width="571.37" height="229.68" viewBox="0 0 571.37 229.68"><defs><style>.a{fill:#30363d;}</style></defs><title>iagona-footer</title><rect class="a" x="34.64" y="78.62" width="25.37" height="94.11"></rect><path class="a" d="M141.81,89c-6.14-7.64-17-12.26-28.68-12.25-14.28,0-26.88,4.72-35.53,13.31s-13.32,21-13.32,35.69c0,15.33,4.65,28,13.44,36.77,8.54,8.49,20.57,13,34.84,13H113c10.14-.18,22.55-4.79,28.89-13.34l.89,10.57h24V79H142.41Zm-7,55c-4.64,5.36-11.27,8.19-19.19,8.19-15.29,0-26-10.87-26-26.44s10.43-26.26,26-26.26c17.59,0,25.59,13.66,25.59,26.35A27.66,27.66,0,0,1,134.81,144Z"></path><path class="a" d="M249,69.25l-9.21,11.54C232.91,76.59,225.11,76,219,76c-27.8,0-48,20-48,47.52,0,29.08,18.39,47.15,48,47.15,10.62,0,22.05,5.32,22.05,17,0,11.12-8.66,18.3-22.05,18.3-12.66,0-22.26-7.47-22.75-17.51l-1.24,1-1.18.91-16.92,13.09-1.1.86-1,.8c7,15,23.25,24.56,44.23,24.56,28.36,0,47.41-16.87,47.41-42,0-8.83-1.87-21.36-17.5-30.11,16.54-9,17.88-28.2,17.88-34,0-10.78-3.05-19.63-9.32-27L267.9,83.37Zm-30,78.33c-13.42,0-22.8-9.88-22.8-24,0-14.37,9.38-24.41,22.8-24.41,13.1,0,22.61,10.27,22.61,24.41S232.31,147.58,219,147.58Z"></path><path class="a" d="M318.3,77.14c-28.34,0-48.91,20.53-48.91,48.81,0,28.74,20.19,48.81,49.09,48.81s49.29-20.07,49.29-48.81C367.77,97.67,347,77.14,318.3,77.14Zm.18,74.33c-16.39,0-23.72-12.82-23.72-25.52,0-12.38,7.42-25.7,23.72-25.7,14.86,0,23.73,13.07,23.73,25.7S334.88,151.47,318.48,151.47Z"></path><path class="a" d="M424.64,77.51c-10.81,0-19.93,3.81-29.28,12.28l-1.32-11H371.25v93.92h25.17V124.84c0-13.81,9.56-24.22,22.24-24.22,12.91,0,20.93,8.86,20.93,23.11v49H465V123.55C465,96,448.75,77.51,424.64,77.51Z"></path><path class="a" d="M547,79l-.59,10c-6.15-7.64-17.06-12.28-28.69-12.25-14.28,0-26.88,4.72-35.52,13.3s-13.33,21-13.33,35.7c0,15.33,4.65,28,13.44,36.77,8.54,8.49,20.58,13,34.85,13h.46c10.14-.18,22.55-4.79,28.9-13.33l.88,10.56h24V79Zm-7.6,65c-4.63,5.36-11.27,8.19-19.19,8.19-15.29,0-26-10.87-26-26.44s10.44-26.26,26-26.26c17.59,0,25.6,13.66,25.6,26.35A27.66,27.66,0,0,1,539.41,144Z"></path><rect class="a" y="29.2" width="29.91" height="29.18"></rect><rect class="a" x="29.9" width="29.91" height="29.18"></rect></svg> 